<svg id="Layer_1" data-name="Layer 1" xmlns="http://www.w3.org/2000/svg" viewBox="0 0 180 180"><defs><style>.cls-1{fill:#ecc023;}</style></defs><title>haobao-vector</title><rect class="cls-1" width="180" height="180"/><polygon points="38.77 70.78 48.01 70.78 48.01 83.87 62.78 83.87 62.78 46.51 48.01 46.51 48.01 59.09 38.77 59.09 38.77 46.51 24 46.51 24 83.87 38.77 83.87 38.77 70.78"/><path d="M81.41,78.1H95.88l2.21,5.77H112.4L96,46.51H81.46L65,83.87H79.15Zm3.87-9.89,3.44-8.8,3.37,8.8Z"/><path d="M122.74,82.3a26.05,26.05,0,0,0,22.44,0,19.54,19.54,0,0,0,7.73-7,19.53,19.53,0,0,0,0-20.25,19.62,19.62,0,0,0-7.73-7,26.14,26.14,0,0,0-22.44,0,19.6,19.6,0,0,0-7.77,7,19.59,19.59,0,0,0,0,20.25A19.52,19.52,0,0,0,122.74,82.3ZM127.94,61a7,7,0,0,1,2.47-2.86,6.74,6.74,0,0,1,7.16,0A6.86,6.86,0,0,1,140,61a10.6,10.6,0,0,1,0,8.41,6.83,6.83,0,0,1-2.41,2.85,6.74,6.74,0,0,1-7.16,0,7,7,0,0,1-2.47-2.85,10.27,10.27,0,0,1,0-8.41Z"/><path d="M58.93,115.42a13.27,13.27,0,0,0-2.7-1.49,10.51,10.51,0,0,0,1.38-1A8.86,8.86,0,0,0,61,106a8.46,8.46,0,0,0-3.79-7c-2.52-1.88-6.53-2.82-12-2.82H24v37.36H46.21q8,0,12.27-2.76a8.66,8.66,0,0,0,4.23-7.64A9,9,0,0,0,58.93,115.42ZM43.2,105.89a3.75,3.75,0,0,1,2.28.57,2,2,0,0,1,.73,1.67,1.85,1.85,0,0,1-.73,1.58,3.91,3.91,0,0,1-2.28.54H38.51v-4.36Zm4,17.2a3.17,3.17,0,0,1-2.15.64H38.51v-4.62h6.55a3.28,3.28,0,0,1,2.15.61,2.29,2.29,0,0,1,0,3.37Z"/><path d="M81.72,96.13,65.28,133.49H79.41l2.26-5.78H96.14l2.21,5.78h14.31L96.23,96.13Zm3.82,21.7L89,109l3.37,8.81Z"/><path d="M145.44,97.7a26.05,26.05,0,0,0-22.44,0,19.6,19.6,0,0,0-7.77,7,19.59,19.59,0,0,0,0,20.25,19.52,19.52,0,0,0,7.77,7,26.14,26.14,0,0,0,22.44,0,19.54,19.54,0,0,0,7.73-7,19.53,19.53,0,0,0,0-20.25A19.62,19.62,0,0,0,145.44,97.7ZM140.24,119a6.86,6.86,0,0,1-2.41,2.86,6.74,6.74,0,0,1-7.16,0A7,7,0,0,1,128.2,119a10.27,10.27,0,0,1,0-8.41,7,7,0,0,1,2.47-2.85,6.74,6.74,0,0,1,7.16,0,6.83,6.83,0,0,1,2.41,2.85,10.6,10.6,0,0,1,0,8.41Z"/></svg>